<?xml version="1.0" encoding="iso-8859-1"?>
<!-- Generator: Adobe Illustrator 19.0.0, SVG Export Plug-In . SVG Version: 6.00 Build 0)  -->
<svg version="1.1" id="Capa_1" xmlns="http://www.w3.org/2000/svg" xmlns:xlink="http://www.w3.org/1999/xlink" x="0px" y="0px"
	 viewBox="0 0 512.001 512.001" style="enable-background:new 0 0 512.001 512.001;" xml:space="preserve">
<linearGradient id="SVGID_1_" gradientUnits="userSpaceOnUse" x1="234.076" y1="78.9876" x2="234.076" y2="336.3476" gradientTransform="matrix(1.0667 0 0 -1.0667 3.2667 557.5336)">
	<stop  offset="0" style="stop-color:#FFFFFF"/>
	<stop  offset="1" style="stop-color:#E8EFEE"/>
</linearGradient>
<path style="fill:url(#SVGID_1_);" d="M37.149,206.421h431.598c14.271,0,25.841,11.569,25.841,25.841v251.346
	c0,14.272-11.569,25.841-25.841,25.841H37.149c-14.271,0-25.841-11.569-25.841-25.841V232.261
	C11.309,217.991,22.878,206.421,37.149,206.421z"/>
<linearGradient id="SVGID_2_" gradientUnits="userSpaceOnUse" x1="234.0765" y1="295.2576" x2="234.0765" y2="37.8976" gradientTransform="matrix(1.0667 0 0 -1.0667 3.2667 557.5336)">
	<stop  offset="0" style="stop-color:#FFFFFF"/>
	<stop  offset="1" style="stop-color:#E8EFEE"/>
</linearGradient>
<path style="fill:url(#SVGID_2_);" d="M461.009,509.449H44.887c-14.028,0-25.399-11.372-25.399-25.399V231.821
	c0-14.028,11.372-25.399,25.399-25.399h416.122c14.028,0,25.4,11.372,25.4,25.399v252.228
	C486.409,498.077,475.037,509.449,461.009,509.449z"/>
<linearGradient id="SVGID_3_" gradientUnits="userSpaceOnUse" x1="334.1682" y1="204.4584" x2="-120.8518" y2="659.4883" gradientTransform="matrix(1.0667 0 0 -1.0667 3.2667 557.5336)">
	<stop  offset="0" style="stop-color:#C2CECE;stop-opacity:0"/>
	<stop  offset="0.179" style="stop-color:#AFBCBC;stop-opacity:0.179"/>
	<stop  offset="1" style="stop-color:#5B6A6A"/>
</linearGradient>
<path style="fill:url(#SVGID_3_);" d="M468.748,206.421H37.149c-14.271,0-25.841,11.569-25.841,25.841v11.534l0.074,0.058
	L276.977,509.45h191.769c14.271,0,25.841-11.569,25.841-25.841V232.261C494.589,217.991,483.019,206.421,468.748,206.421z"/>
<linearGradient id="SVGID_4_" gradientUnits="userSpaceOnUse" x1="234.0765" y1="317.3976" x2="234.0765" y2="282.5776" gradientTransform="matrix(1.0667 0 0 -1.0667 3.2667 557.5336)">
	<stop  offset="0" style="stop-color:#5B6A6A"/>
	<stop  offset="1" style="stop-color:#303033"/>
</linearGradient>
<path style="fill:url(#SVGID_4_);" d="M497.676,243.966H8.221c-4.54,0-8.221-3.681-8.221-8.221v-58.649
	c0-4.54,3.681-8.221,8.221-8.221h489.455c4.54,0,8.221,3.681,8.221,8.221v58.649C505.897,240.286,502.217,243.966,497.676,243.966z"
	/>
<g>
	
		<linearGradient id="SVGID_5_" gradientUnits="userSpaceOnUse" x1="35.9945" y1="330.8276" x2="35.9945" y2="303.9076" gradientTransform="matrix(1.0667 0 0 -1.0667 3.2667 557.5336)">
		<stop  offset="0" style="stop-color:#FFFFFF"/>
		<stop  offset="1" style="stop-color:#E8EFEE"/>
	</linearGradient>
	<path style="fill:url(#SVGID_5_);" d="M83.322,168.879L8.221,243.967l0,0c-4.54,0-8.221-3.681-8.221-8.221v-40.194l26.673-26.673
		H83.322z"/>
	
		<linearGradient id="SVGID_6_" gradientUnits="userSpaceOnUse" x1="120.6825" y1="330.8276" x2="120.6825" y2="303.9076" gradientTransform="matrix(1.0667 0 0 -1.0667 3.2667 557.5336)">
		<stop  offset="0" style="stop-color:#FFFFFF"/>
		<stop  offset="1" style="stop-color:#E8EFEE"/>
	</linearGradient>
	<polygon style="fill:url(#SVGID_6_);" points="197.148,168.879 122.048,243.967 68.271,243.967 66.842,242.538 140.5,168.879 	"/>
	
		<linearGradient id="SVGID_7_" gradientUnits="userSpaceOnUse" x1="227.3955" y1="330.8276" x2="227.3955" y2="303.9076" gradientTransform="matrix(1.0667 0 0 -1.0667 3.2667 557.5336)">
		<stop  offset="0" style="stop-color:#FFFFFF"/>
		<stop  offset="1" style="stop-color:#E8EFEE"/>
	</linearGradient>
	<polygon style="fill:url(#SVGID_7_);" points="310.975,168.879 235.874,243.967 182.097,243.967 180.669,242.538 254.327,168.879 	
		"/>
	
		<linearGradient id="SVGID_8_" gradientUnits="userSpaceOnUse" x1="334.1075" y1="330.8276" x2="334.1075" y2="303.9076" gradientTransform="matrix(1.0667 0 0 -1.0667 3.2667 557.5336)">
		<stop  offset="0" style="stop-color:#FFFFFF"/>
		<stop  offset="1" style="stop-color:#E8EFEE"/>
	</linearGradient>
	<polygon style="fill:url(#SVGID_8_);" points="424.801,168.879 349.701,243.967 295.924,243.967 294.495,242.538 368.154,168.879 	
		"/>
	
		<linearGradient id="SVGID_9_" gradientUnits="userSpaceOnUse" x1="425.477" y1="330.8276" x2="425.477" y2="303.9076" gradientTransform="matrix(1.0667 0 0 -1.0667 3.2667 557.5336)">
		<stop  offset="0" style="stop-color:#FFFFFF"/>
		<stop  offset="1" style="stop-color:#E8EFEE"/>
	</linearGradient>
	<path style="fill:url(#SVGID_9_);" d="M505.897,177.1v24.511l-42.369,42.356H409.75l-1.429-1.429l73.659-73.659h15.695
		C502.217,168.879,505.897,172.56,505.897,177.1z"/>
</g>
<linearGradient id="SVGID_10_" gradientUnits="userSpaceOnUse" x1="234.0765" y1="321.7376" x2="234.0765" y2="296.8376" gradientTransform="matrix(1.0667 0 0 -1.0667 3.2667 557.5336)">
	<stop  offset="0" style="stop-color:#5B6A6A;stop-opacity:0"/>
	<stop  offset="1" style="stop-color:#303033"/>
</linearGradient>
<path style="fill:url(#SVGID_10_);" d="M0,206.421v29.325c0,4.54,3.681,8.221,8.221,8.221h489.455c4.54,0,8.221-3.681,8.221-8.221
	v-29.325H0z"/>
<linearGradient id="SVGID_11_" gradientUnits="userSpaceOnUse" x1="241.1034" y1="429.5908" x2="247.8534" y2="395.4408" gradientTransform="matrix(1.0667 0 0 -1.0667 3.2667 557.5336)">
	<stop  offset="0" style="stop-color:#5B6A6A"/>
	<stop  offset="1" style="stop-color:#303033"/>
</linearGradient>
<path style="fill:url(#SVGID_11_);" d="M505.371,76.375L25.199,171.248c-4.454,0.88-8.779-2.017-9.659-6.471L4.172,107.241
	c-0.88-4.454,2.017-8.779,6.471-9.659L490.816,2.708c4.454-0.88,8.779,2.017,9.659,6.471l11.369,57.536
	C512.722,71.17,509.825,75.495,505.371,76.375z"/>
<linearGradient id="SVGID_12_" gradientUnits="userSpaceOnUse" x1="44.1703" y1="404.3882" x2="49.3903" y2="377.9782" gradientTransform="matrix(1.0667 0 0 -1.0667 3.2667 557.5336)">
	<stop  offset="0" style="stop-color:#FFFFFF"/>
	<stop  offset="1" style="stop-color:#E8EFEE"/>
</linearGradient>
<path style="fill:url(#SVGID_12_);" d="M84.32,83.027l-59.121,88.221l0,0c-4.454,0.88-8.779-2.017-9.659-6.471l-7.791-39.431
	l20.997-31.338L84.32,83.027z"/>
<linearGradient id="SVGID_13_" gradientUnits="userSpaceOnUse" x1="127.2537" y1="420.7989" x2="132.4637" y2="394.3889" gradientTransform="matrix(1.0667 0 0 -1.0667 3.2667 557.5336)">
	<stop  offset="0" style="stop-color:#FFFFFF"/>
	<stop  offset="1" style="stop-color:#E8EFEE"/>
</linearGradient>
<polygon style="fill:url(#SVGID_13_);" points="195.988,60.964 136.867,149.185 84.11,159.609 82.431,158.483 140.415,71.945 "/>
<linearGradient id="SVGID_14_" gradientUnits="userSpaceOnUse" x1="231.9429" y1="441.4807" x2="237.1629" y2="415.0706" gradientTransform="matrix(1.0667 0 0 -1.0667 3.2667 557.5336)">
	<stop  offset="0" style="stop-color:#FFFFFF"/>
	<stop  offset="1" style="stop-color:#E8EFEE"/>
</linearGradient>
<polygon style="fill:url(#SVGID_14_);" points="307.657,38.9 248.534,127.121 195.778,137.545 194.099,136.42 252.083,49.881 "/>
<linearGradient id="SVGID_15_" gradientUnits="userSpaceOnUse" x1="336.6323" y1="462.1606" x2="341.8523" y2="435.7505" gradientTransform="matrix(1.0667 0 0 -1.0667 3.2667 557.5336)">
	<stop  offset="0" style="stop-color:#FFFFFF"/>
	<stop  offset="1" style="stop-color:#E8EFEE"/>
</linearGradient>
<polygon style="fill:url(#SVGID_15_);" points="419.325,16.837 360.203,105.058 307.445,115.482 305.766,114.356 363.75,27.818 "/>
<linearGradient id="SVGID_16_" gradientUnits="userSpaceOnUse" x1="426.2681" y1="479.8717" x2="431.4881" y2="453.4617" gradientTransform="matrix(1.0667 0 0 -1.0667 3.2667 557.5336)">
	<stop  offset="0" style="stop-color:#FFFFFF"/>
	<stop  offset="1" style="stop-color:#E8EFEE"/>
</linearGradient>
<path style="fill:url(#SVGID_16_);" d="M500.475,9.183l4.751,24.046L471.87,82.994l-52.757,10.423l-1.679-1.125l57.984-86.539
	l15.397-3.042C495.27,1.832,499.595,4.729,500.475,9.183z"/>
<linearGradient id="SVGID_17_" gradientUnits="userSpaceOnUse" x1="240.2607" y1="433.8602" x2="245.0807" y2="409.4302" gradientTransform="matrix(1.0667 0 0 -1.0667 3.2667 557.5336)">
	<stop  offset="0" style="stop-color:#5B6A6A;stop-opacity:0"/>
	<stop  offset="1" style="stop-color:#303033"/>
</linearGradient>
<path style="fill:url(#SVGID_17_);" d="M9.856,136.009l5.684,28.768c0.88,4.454,5.204,7.351,9.659,6.471l480.173-94.873
	c4.454-0.88,7.351-5.204,6.471-9.659l-5.684-28.768L9.856,136.009z"/>
<linearGradient id="SVGID_18_" gradientUnits="userSpaceOnUse" x1="63.9295" y1="358.4976" x2="63.9295" y2="290.5176" gradientTransform="matrix(1.0667 0 0 -1.0667 3.2667 557.5336)">
	<stop  offset="0" style="stop-color:#5B6A6A"/>
	<stop  offset="1" style="stop-color:#303033"/>
</linearGradient>
<path style="fill:url(#SVGID_18_);" d="M71.755,93.786H8.086C3.62,93.786,0,97.406,0,101.872v134.009
	c0,4.466,3.62,8.086,8.086,8.086h125.042c5.406,0,9.788-4.382,9.788-9.788V172.6c0-2.398-0.88-4.713-2.474-6.503L79.069,97.072
	C77.212,94.981,74.549,93.786,71.755,93.786z"/>
<linearGradient id="SVGID_19_" gradientUnits="userSpaceOnUse" x1="44.0674" y1="297.7975" x2="18.4344" y2="323.4375" gradientTransform="matrix(1.0667 0 0 -1.0667 3.2667 557.5336)">
	<stop  offset="0" style="stop-color:#5B6A6A;stop-opacity:0"/>
	<stop  offset="1" style="stop-color:#303033"/>
</linearGradient>
<path style="fill:url(#SVGID_19_);" d="M66.513,243.486c0,0.164,0,0.329-0.013,0.481H36.513L20.666,228.12
	c-2.365-2.289-3.857-5.502-3.857-9.068c0-6.981,5.653-12.635,12.635-12.635c3.567,0,6.779,1.492,9.068,3.857l24.144,24.144
	C65.021,236.707,66.513,239.92,66.513,243.486z"/>
<linearGradient id="SVGID_20_" gradientUnits="userSpaceOnUse" x1="24.5385" y1="328.7276" x2="24.5385" y2="301.6176" gradientTransform="matrix(1.0667 0 0 -1.0667 3.2667 557.5336)">
	<stop  offset="0" style="stop-color:#E8EFEE"/>
	<stop  offset="1" style="stop-color:#97AAAA"/>
</linearGradient>
<circle style="fill:url(#SVGID_20_);" cx="29.441" cy="219.051" r="12.627"/>
<linearGradient id="SVGID_21_" gradientUnits="userSpaceOnUse" x1="24.5385" y1="312.7676" x2="24.5385" y2="323.5276" gradientTransform="matrix(1.0667 0 0 -1.0667 3.2667 557.5336)">
	<stop  offset="0" style="stop-color:#E8EFEE"/>
	<stop  offset="1" style="stop-color:#97AAAA"/>
</linearGradient>
<path style="fill:url(#SVGID_21_);" d="M36.018,216.959h-4.487v-4.489c0-1.154-0.935-2.09-2.09-2.09l0,0
	c-1.154,0-2.09,0.935-2.09,2.09v4.489h-4.489c-1.154,0-2.09,0.935-2.09,2.09c0,1.154,0.935,2.09,2.09,2.09h4.489v4.489
	c0,1.154,0.935,2.09,2.09,2.09l0,0c1.154,0,2.09-0.935,2.09-2.09v-4.489h4.489c1.154,0,2.09-0.935,2.09-2.09
	C38.108,217.895,37.172,216.959,36.018,216.959z"/>
<linearGradient id="SVGID_22_" gradientUnits="userSpaceOnUse" x1="121.8884" y1="304.6685" x2="102.5684" y2="323.9885" gradientTransform="matrix(1.0667 0 0 -1.0667 3.2667 557.5336)">
	<stop  offset="0" style="stop-color:#5B6A6A;stop-opacity:0"/>
	<stop  offset="1" style="stop-color:#303033"/>
</linearGradient>
<path style="fill:url(#SVGID_22_);" d="M142.916,224.351v9.827c0,5.401-4.377,9.789-9.789,9.789h-6.286l-15.835-15.847
	c-2.378-2.289-3.857-5.502-3.857-9.068c0-6.981,5.653-12.635,12.622-12.635c3.567,0,6.779,1.492,9.081,3.857L142.916,224.351z"/>
<linearGradient id="SVGID_23_" gradientUnits="userSpaceOnUse" x1="109.2275" y1="328.7276" x2="109.2275" y2="301.6176" gradientTransform="matrix(1.0667 0 0 -1.0667 3.2667 557.5336)">
	<stop  offset="0" style="stop-color:#E8EFEE"/>
	<stop  offset="1" style="stop-color:#97AAAA"/>
</linearGradient>
<circle style="fill:url(#SVGID_23_);" cx="119.776" cy="219.051" r="12.627"/>
<linearGradient id="SVGID_24_" gradientUnits="userSpaceOnUse" x1="109.2265" y1="312.7676" x2="109.2265" y2="323.5276" gradientTransform="matrix(1.0667 0 0 -1.0667 3.2667 557.5336)">
	<stop  offset="0" style="stop-color:#E8EFEE"/>
	<stop  offset="1" style="stop-color:#97AAAA"/>
</linearGradient>
<path style="fill:url(#SVGID_24_);" d="M126.353,216.959h-4.489v-4.489c0-1.154-0.935-2.09-2.09-2.09l0,0
	c-1.154,0-2.09,0.935-2.09,2.09v4.489h-4.489c-1.154,0-2.09,0.935-2.09,2.09c0,1.154,0.935,2.09,2.09,2.09h4.489v4.489
	c0,1.154,0.935,2.09,2.09,2.09l0,0c1.154,0,2.09-0.935,2.09-2.09v-4.489h4.489c1.154,0,2.09-0.935,2.09-2.09
	C128.442,217.895,127.506,216.959,126.353,216.959z"/>
<linearGradient id="SVGID_25_" gradientUnits="userSpaceOnUse" x1="45.7296" y1="386.2677" x2="18.5736" y2="413.4177" gradientTransform="matrix(1.0667 0 0 -1.0667 3.2667 557.5336)">
	<stop  offset="0" style="stop-color:#5B6A6A;stop-opacity:0"/>
	<stop  offset="1" style="stop-color:#303033"/>
</linearGradient>
<path style="fill:url(#SVGID_25_);" d="M44.809,156.124c2.295,2.374,5.508,3.856,9.072,3.856c6.974,0,12.627-5.653,12.627-12.627
	c0-3.564-1.483-6.777-3.857-9.073l-24.138-24.138c-2.295-2.374-5.508-3.856-9.072-3.856c-6.974,0-12.627,5.653-12.627,12.627
	c0,3.564,1.482,6.777,3.856,9.072L44.809,156.124z"/>
<linearGradient id="SVGID_26_" gradientUnits="userSpaceOnUse" x1="24.5385" y1="418.8576" x2="24.5385" y2="391.7476" gradientTransform="matrix(1.0667 0 0 -1.0667 3.2667 557.5336)">
	<stop  offset="0" style="stop-color:#E8EFEE"/>
	<stop  offset="1" style="stop-color:#97AAAA"/>
</linearGradient>
<circle style="fill:url(#SVGID_26_);" cx="29.441" cy="122.912" r="12.627"/>
<linearGradient id="SVGID_27_" gradientUnits="userSpaceOnUse" x1="24.5385" y1="402.8976" x2="24.5385" y2="413.6476" gradientTransform="matrix(1.0667 0 0 -1.0667 3.2667 557.5336)">
	<stop  offset="0" style="stop-color:#E8EFEE"/>
	<stop  offset="1" style="stop-color:#97AAAA"/>
</linearGradient>
<path style="fill:url(#SVGID_27_);" d="M36.018,120.824h-4.487v-4.489c0-1.154-0.935-2.09-2.09-2.09l0,0
	c-1.154,0-2.09,0.935-2.09,2.09v4.489h-4.489c-1.154,0-2.09,0.935-2.09,2.09c0,1.154,0.935,2.09,2.09,2.09h4.489v4.489
	c0,1.154,0.935,2.09,2.09,2.09l0,0c1.154,0,2.09-0.935,2.09-2.09v-4.489h4.489c1.154,0,2.09-0.935,2.09-2.09
	C38.108,121.759,37.172,120.824,36.018,120.824z"/>
<linearGradient id="SVGID_28_" gradientUnits="userSpaceOnUse" x1="331.6771" y1="78.6572" x2="172.5971" y2="237.7372" gradientTransform="matrix(1.0667 0 0 -1.0667 3.2667 557.5336)">
	<stop  offset="0" style="stop-color:#C2CECE;stop-opacity:0"/>
	<stop  offset="0.179" style="stop-color:#AFBCBC;stop-opacity:0.179"/>
	<stop  offset="1" style="stop-color:#5B6A6A"/>
</linearGradient>
<path style="fill:url(#SVGID_28_);" d="M480.119,506.785L316.092,342.757l-84.59-63.967c-7.312-5.53-17.796-0.314-17.796,8.854
	v127.934c0,4.016,2.013,7.274,4.889,9.202l84.669,84.669h165.484C472.834,509.449,476.685,508.474,480.119,506.785z"/>
<linearGradient id="SVGID_29_" gradientUnits="userSpaceOnUse" x1="234.077" y1="91.3676" x2="234.077" y2="43.7476" gradientTransform="matrix(1.0667 0 0 -1.0667 3.2667 557.5336)">
	<stop  offset="0" style="stop-color:#5B6A6A"/>
	<stop  offset="1" style="stop-color:#303033"/>
</linearGradient>
<path style="fill:url(#SVGID_29_);" d="M11.309,453.378v30.229c0,14.271,11.569,25.841,25.841,25.841h431.598
	c14.271,0,25.841-11.569,25.841-25.841v-30.229H11.309z"/>
<linearGradient id="SVGID_30_" gradientUnits="userSpaceOnUse" x1="247.3451" y1="241.4076" x2="247.3451" y2="153.3776" gradientTransform="matrix(1.0667 0 0 -1.0667 3.2667 557.5336)">
	<stop  offset="0" style="stop-color:#D63305"/>
	<stop  offset="0.366" style="stop-color:#CF3004"/>
	<stop  offset="0.899" style="stop-color:#BC2602"/>
	<stop  offset="1" style="stop-color:#B72401"/>
</linearGradient>
<path style="fill:url(#SVGID_30_);" d="M231.502,424.432l84.59-63.967c5.874-4.442,5.874-13.266,0-17.708l-84.59-63.967
	c-7.312-5.53-17.796-0.314-17.796,8.854v127.934C213.706,424.746,224.19,429.962,231.502,424.432z"/>
<g>
</g>
<g>
</g>
<g>
</g>
<g>
</g>
<g>
</g>
<g>
</g>
<g>
</g>
<g>
</g>
<g>
</g>
<g>
</g>
<g>
</g>
<g>
</g>
<g>
</g>
<g>
</g>
<g>
</g>
</svg>
